<?xml version="1.0" encoding="utf-8"?>
<!-- Generator: Adobe Illustrator 19.2.1, SVG Export Plug-In . SVG Version: 6.00 Build 0)  -->
<svg version="1.1" id="Layer_1" xmlns="http://www.w3.org/2000/svg" xmlns:xlink="http://www.w3.org/1999/xlink" x="0px" y="0px"
	 width="216.1px" height="40px" viewBox="0 0 216.1 40" style="enable-background:new 0 0 216.1 40;" xml:space="preserve">
<style type="text/css">
	.st0{fill:#2E2A25;}
	.st1{fill:#CAC8C8;}
	.st2{fill:#FD4F57;}
</style>
<g>
	<path class="st0" d="M167.3,22.2v3.6c0,1.9-1,3-3,3h-0.6c-2,0-3-1-3-3V14.6c0-1.9,1-2.9,3-2.9h0.6c1.9,0,2.9,1,2.9,2.9v3.1h-1.4
		v-3.1c0-1-0.5-1.5-1.6-1.5h-0.5c-1.1,0-1.6,0.5-1.6,1.5v11.3c0,1,0.5,1.5,1.6,1.5h0.6c1.1,0,1.6-0.5,1.6-1.5v-3.6H167.3z"/>
	<path class="st0" d="M175,19.4v-7.6h1.4v16.8H175v-7.9h-3.7v7.9h-1.4V11.8h1.4v7.6H175z"/>
	<path class="st0" d="M180.7,28.6h-1.4V11.8h1.4V28.6z"/>
	<path class="st0" d="M190,22.2v3.6c0,1.9-1,3-3,3h-0.6c-2,0-3-1-3-3V14.6c0-1.9,1-2.9,3-2.9h0.6c1.9,0,2.9,1,2.9,2.9v3.1h-1.4v-3.1
		c0-1-0.5-1.5-1.6-1.5h-0.5c-1.1,0-1.6,0.5-1.6,1.5v11.3c0,1,0.5,1.5,1.6,1.5h0.6c1.1,0,1.6-0.5,1.6-1.5v-3.6H190z"/>
	<path class="st0" d="M198.9,28.6h-1.4l-0.5-3.2h-3.6l-0.5,3.2h-1.4l2.8-16.9h1.7L198.9,28.6z M193.6,24.1h3.1l-1.6-10L193.6,24.1z"
		/>
	<path class="st0" d="M203.9,21.2v-1.3h3.3v6c0,1.9-1,3-2.9,3h-0.7c-2,0-3-1-3-3V14.6c0-1.9,1-2.9,3-2.9h0.7c1.9,0,2.9,1,2.9,2.9V17
		h-1.4v-2.5c0-1-0.5-1.5-1.6-1.5h-0.6c-1.1,0-1.6,0.5-1.6,1.5v11.3c0,1,0.5,1.5,1.6,1.5h0.7c1,0,1.5-0.5,1.5-1.5v-4.7H203.9z"/>
	<path class="st0" d="M213.2,28.8h-0.8c-2,0-3-1-3-3V14.6c0-1.9,1-2.9,3-2.9h0.8c2,0,3,1,3,2.9v11.2
		C216.1,27.7,215.1,28.8,213.2,28.8z M213.1,13h-0.7c-1.1,0-1.6,0.5-1.6,1.5v11.3c0,1,0.5,1.5,1.6,1.5h0.7c1.1,0,1.6-0.5,1.6-1.5
		V14.5C214.7,13.5,214.2,13,213.1,13z"/>
</g>
<rect x="153.7" y="0.2" class="st1" width="1.4" height="39.8"/>
<g>
	<g>
		<path class="st1" d="M129.6,20.1c0-5.6,3.5-9,9.2-9c5.8,0,9.2,3.3,9.2,8.9c0,5.6-3.5,9.1-9.2,9.1C132.9,29,129.6,25.7,129.6,20.1z
			 M142,20c0-5.1-0.8-7.2-3.3-7.2c-2.5,0-3,2.1-3,7.2c0,5.1,0.8,7.3,3.3,7.3C141.4,27.3,142,25.1,142,20z"/>
		<path class="st1" d="M114.2,25.8v-2.3l0-6.7c0-3.5-1.3-5.5-4.5-5.5c-2.4,0-4.6,1.4-6.4,3v-2.9l-7.4,0.4v1.6
			c1.5,0.2,1.8,0.8,1.8,1.8l0,10.6c0,0.9-0.6,1.3-1.8,1.3v1.5h9.3v-1.5c-1.3,0-1.8-0.4-1.8-1.3V15.6c1-0.5,1.8-0.9,3-0.9
			c1.7,0,2.2,1.1,2.2,2.9l0,8.2c0,0.9-0.6,1.3-1.8,1.3v1.5h9.3v-1.5C114.7,27.1,114.2,26.7,114.2,25.8z"/>
		<path class="st1" d="M92.4,25.8V15.6v-1.3v-2.9l-7.5,0.4v1.6c1.5,0.2,1.8,0.8,1.8,1.8l0,10.6c0,0.9-0.6,1.3-1.8,1.3v1.5h9.3v-1.5
			C93,27.1,92.4,26.7,92.4,25.8z"/>
		<path class="st1" d="M127.5,2.6c-2.8,0-4.9,0.6-6.3,2c-1.3,1.4-1.9,3.4-1.9,6.1v0.9l-3.2,0.7v1.8h3.2l0,11.7
			c0,0.9-0.6,1.3-1.8,1.3v1.5h9.3v-1.5c-1.3,0-1.8-0.4-1.8-1.3V14h4.6v-2.3H125V9.2c0-2.4,0.4-3.8,1-4.4c0.4-0.4,0.8-0.6,1.3-0.6
			c0.3,0,0.6,0,1,0.2c-0.2,0.4-0.4,1.4-0.4,1.8c0,2,1.2,3,2.8,3c1.8,0,2.8-1.2,2.8-2.9C133.6,4.3,131.6,2.6,127.5,2.6z"/>
	</g>
	<g>
		<polygon class="st2" points="75.3,5.7 75.3,34.3 5.7,34.3 5.7,5.7 17.2,5.7 17.2,0 0,0 0,40 81,40 81,0 28.6,0 28.6,5.7 		"/>
	</g>
	<g>
		<g>
			<g>
				<path class="st0" d="M50.3,25.8v-2.3l0-6.7c0-3.5-1.3-5.5-4.5-5.5c-2.4,0-4.6,1.4-6.4,3v-2.9l-7.4,0.4v1.6
					c1.5,0.2,1.8,0.8,1.8,1.8l0,10.6c0,0.9-0.6,1.3-1.8,1.3v1.5h9.3v-1.5c-1.3,0-1.8-0.4-1.8-1.3V15.6c1-0.5,1.8-0.9,3-0.9
					c1.7,0,2.2,1.1,2.2,2.9l0,8.2c0,0.9-0.6,1.3-1.8,1.3v1.5h9.3v-1.5C50.9,27.1,50.3,26.7,50.3,25.8z"/>
			</g>
			<path class="st0" d="M69.6,25.8l0-1.2v-6.7c0-4.3-1.9-6.6-6.8-6.6c-5.6,0-8.5,1.6-8.5,3.9c0,1.6,1,2.7,3,2.7
				c1.9,0,3.1-1.2,3.1-2.8c0-0.8-0.3-1.4-0.5-1.8c0.3-0.1,0.9-0.2,1.4-0.2c1.8,0,2.8,0.8,2.8,3.4v2.3c-1.5,0.4-5.7,0.3-8.2,1.7
				c-1.6,0.9-2.4,2.6-2.4,4c0,2.2,1.6,4.6,5.2,4.6c2.1,0,4-1,5.5-2.4h0.1c0.6,1.3,1.1,2,3.3,2h3.8v-1.5
				C70.2,27.1,69.6,26.7,69.6,25.8z M64.1,24.9c-0.6,0.7-1.3,1.2-2.3,1.2c-1.4,0-2.4-1.1-2.4-2.7c0-2.1,1.4-2.9,4.7-3.2V24.9z"/>
		</g>
		<path class="st0" d="M28.6,0l-5.7,5.7v6.1c-1.1-0.4-2-0.6-3.5-0.6c-5.7,0-8.7,4.4-8.7,9.2c0,5,2.8,8.5,7.5,8.5
			c2.1,0,3.7-1,4.8-2.4v2.1h7.4v-1.5c-1.3,0-1.8-0.4-1.8-1.3v-0.4v-1.9V5.7L28.6,0L28.6,0z M20.3,26c-2.1,0-3.6-2.4-3.6-6.2
			c0-4.7,1.2-6.7,3.3-6.7c1.3,0,2.4,0.8,2.9,1.7l0,10.2C22.2,25.7,21.5,26,20.3,26z"/>
	</g>
</g>
</svg>
