<?xml version="1.0" encoding="utf-8"?>
<!-- Generator: Adobe Illustrator 19.2.1, SVG Export Plug-In . SVG Version: 6.00 Build 0)  -->
<svg version="1.1" id="Layer_1" xmlns="http://www.w3.org/2000/svg" xmlns:xlink="http://www.w3.org/1999/xlink" x="0px" y="0px"
	 width="50px" height="24.7px" viewBox="0 0 50 24.7" style="enable-background:new 0 0 50 24.7;" xml:space="preserve">
<style type="text/css">
	.st0{fill:#FD4F57;}
	.st1{fill:#2E2A25;}
</style>
<g>
	<polygon class="st0" points="46.5,3.5 46.5,21.2 3.5,21.2 3.5,3.5 10.6,3.5 10.6,0 0,0 0,24.7 50,24.7 50,0 17.6,0 17.6,3.5 	"/>
</g>
<g>
	<g>
		<g>
			<path class="st1" d="M31,15.9v-1.4l0-4.1C31,8.2,30.3,7,28.2,7c-1.5,0-2.9,0.9-3.9,1.9V7l-4.6,0.3v1c0.9,0.1,1.1,0.5,1.1,1.1
				l0,6.6c0,0.5-0.3,0.8-1.1,0.8v0.9h5.7v-0.9c-0.8,0-1.1-0.3-1.1-0.8V9.6c0.6-0.3,1.1-0.5,1.8-0.5c1,0,1.3,0.7,1.3,1.8l0,5
				c0,0.5-0.3,0.8-1.1,0.8v0.9h5.7v-0.9C31.4,16.7,31,16.5,31,15.9z"/>
		</g>
		<path class="st1" d="M43,15.9l0-0.8V11C43,8.3,41.8,7,38.8,7c-3.4,0-5.3,1-5.3,2.4c0,1,0.6,1.7,1.8,1.7c1.2,0,1.9-0.7,1.9-1.8
			c0-0.5-0.2-0.9-0.3-1.1C37.2,8.1,37.5,8,37.8,8c1.1,0,1.7,0.5,1.7,2.1v1.4c-0.9,0.3-3.5,0.2-5.1,1c-1,0.5-1.5,1.6-1.5,2.5
			c0,1.3,1,2.8,3.2,2.8c1.3,0,2.5-0.6,3.4-1.5h0.1c0.3,0.8,0.7,1.3,2,1.3h2.4v-0.9C43.3,16.7,43,16.5,43,15.9z M39.6,15.4
			c-0.3,0.4-0.8,0.8-1.4,0.8c-0.9,0-1.5-0.7-1.5-1.7c0-1.3,0.8-1.8,2.9-2V15.4z"/>
	</g>
	<path class="st1" d="M17.6,0l-3.5,3.5v3.7C13.5,7,12.9,6.9,12,6.9c-3.5,0-5.4,2.7-5.4,5.7c0,3.1,1.7,5.2,4.6,5.2
		c1.3,0,2.3-0.6,3-1.5v1.3h4.6v-0.9c-0.8,0-1.1-0.3-1.1-0.8v-0.3v-1.2v-11L17.6,0L17.6,0z M12.5,16c-1.3,0-2.2-1.5-2.2-3.8
		c0-2.9,0.8-4.1,2-4.1c0.8,0,1.5,0.5,1.8,1l0,6.3C13.7,15.9,13.2,16,12.5,16z"/>
</g>
</svg>
