<?xml version="1.0" encoding="utf-8"?>
<!-- Generator: Adobe Illustrator 19.2.1, SVG Export Plug-In . SVG Version: 6.00 Build 0)  -->
<svg version="1.1" id="Layer_1" xmlns="http://www.w3.org/2000/svg" xmlns:xlink="http://www.w3.org/1999/xlink" x="0px" y="0px"
	 width="36px" height="36px" viewBox="0 0 36 36" style="enable-background:new 0 0 36 36;" xml:space="preserve">
<style type="text/css">
	.st0{fill:#FD4F57;}
	.st1{fill:#2E2A25;}
</style>
<polygon class="st0" points="25.5,5.3 30.7,5.3 30.7,30.7 5.3,30.7 5.3,5.3 10.8,5.3 10.8,0 0,0 0,36 36,36 36,0 25.5,0 "/>
<path class="st1" d="M25.5,23.7v-0.4v-1.8V5.3V0h0l-5.3,5.3v5.4c-1-0.3-1.8-0.5-3.2-0.5c-5.3,0-8.1,4.1-8.1,8.5
	c0,4.6,2.6,7.8,6.9,7.8c1.9,0,3.4-0.9,4.4-2.2v1.9h6.8v-1.4C26,24.8,25.5,24.5,25.5,23.7z M17.8,23.8c-1.9,0-3.3-2.2-3.3-5.7
	c0-4.3,1.1-6.2,3-6.2c1.2,0,2.2,0.7,2.7,1.6l0,9.4C19.6,23.6,18.9,23.8,17.8,23.8z"/>
</svg>
